<svg width="128" height="128" viewBox="0 0 128 128" fill="none" xmlns="http://www.w3.org/2000/svg">
  <!-- Background circle with gradient -->
  <defs>
    <linearGradient id="bgGradient" x1="0%" y1="0%" x2="100%" y2="100%">
      <stop offset="0%" style="stop-color:#1f2937;stop-opacity:1" />
      <stop offset="100%" style="stop-color:#111827;stop-opacity:1" />
    </linearGradient>
    <linearGradient id="heartGradient" x1="0%" y1="0%" x2="100%" y2="100%">
      <stop offset="0%" style="stop-color:#ec4899;stop-opacity:1" />
      <stop offset="100%" style="stop-color:#be185d;stop-opacity:1" />
    </linearGradient>
  </defs>
  
  <!-- Background circle -->
  <circle cx="64" cy="64" r="60" fill="url(#bgGradient)" stroke="#ec4899" stroke-width="3"/>
  
  <!-- Heart shape -->
  <path d="M64 100C64 100 40 76 40 56C40 44 48 36 60 36C64 36 64 40 64 40C64 40 64 36 68 36C80 36 88 44 88 56C88 76 64 100 64 100Z" fill="url(#heartGradient)"/>
  
  <!-- Rose petals -->
  <circle cx="50" cy="50" r="6" fill="#f472b6" opacity="0.9"/>
  <circle cx="78" cy="50" r="6" fill="#f472b6" opacity="0.9"/>
  <circle cx="64" cy="40" r="5" fill="#f472b6" opacity="0.9"/>
  <circle cx="55" cy="45" r="4" fill="#f472b6" opacity="0.7"/>
  <circle cx="73" cy="45" r="4" fill="#f472b6" opacity="0.7"/>
  
  <!-- Sparkles -->
  <path d="M24 24L28 28L24 32L20 28L24 24Z" fill="#fbbf24"/>
  <path d="M104 24L108 28L104 32L100 28L104 24Z" fill="#fbbf24"/>
  <path d="M24 104L28 108L24 112L20 108L24 104Z" fill="#fbbf24"/>
  <path d="M104 104L108 108L104 112L100 108L104 104Z" fill="#fbbf24"/>
  
  <!-- Inner sparkles -->
  <path d="M40 40L42 42L40 44L38 42L40 40Z" fill="#fbbf24" opacity="0.8"/>
  <path d="M88 40L90 42L88 44L86 42L88 40Z" fill="#fbbf24" opacity="0.8"/>
  <path d="M40 88L42 90L40 92L38 90L40 88Z" fill="#fbbf24" opacity="0.8"/>
  <path d="M88 88L90 90L88 92L86 90L88 88Z" fill="#fbbf24" opacity="0.8"/>
</svg>
